
		<!--?xml version="1.0" standalone="no"?-->

<svg version="1.0" xmlns="http://www.w3.org/2000/svg" width="300" height="300" viewBox="0 0 300.000000 300.000000" preserveAspectRatio="xMidYMid " class="svg" style="width: 310px; height: 300px;">
<g transform="translate(0.000000,300.000000) scale(0.100000,-0.100000)" fill="#060606" stroke="none">
<path class="node" id="node1" d="M991 2620 c-64 -14 -154 -46 -214 -77 -58 -31 -188 -150 -222 -203
-32 -51 -80 -150 -93 -190 -23 -71 -30 -192 -17 -285 18 -124 23 -139 80 -240
100 -178 258 -290 470 -331 84 -17 142 -18 221 -3 211 38 370 149 480 334 127
214 111 519 -39 724 -124 172 -303 267 -517 276 -58 2 -125 0 -149 -5z" style="fill: rgb(255, 255, 255);"></path>
<path class="node" id="node2" d="M2469 1559 c-29 -16 -206 -188 -286 -279 -11 -14 -60 -63 -108 -110
-110 -108 -289 -298 -294 -312 -4 -12 298 -318 314 -318 16 0 655 654 683 699
19 30 23 46 19 96 -13 176 -190 296 -328 224z m164 -92 c34 -22 77 -89 84
-130 5 -33 1 -40 -52 -96 -40 -42 -62 -58 -73 -53 -23 8 -182 172 -182 187 0
7 25 36 56 65 53 50 57 52 100 47 24 -2 54 -11 67 -20z" style="fill: rgb(255, 255, 255);"></path>
<path class="node" id="node3" d="M433 1393 c-57 -49 -153 -234 -206 -399 -25 -78 -42 -283 -28 -339
28 -111 132 -216 304 -307 31 -16 178 -65 282 -93 91 -25 259 -38 393 -31 168
9 195 14 186 35 -14 30 -16 138 -3 163 7 12 16 39 20 58 15 74 80 275 101 316
13 23 106 127 207 232 101 104 188 196 193 205 6 11 2 30 -13 59 -27 53 -77
118 -91 118 -6 0 -43 -31 -82 -68 -160 -151 -383 -243 -591 -242 -79 1 -273
39 -300 59 -5 4 -32 16 -58 25 -59 22 -197 122 -253 182 -40 44 -41 45 -61 27z" style="fill: rgb(255, 255, 255);"></path>
<path class="node" id="node4" d="M1627 689 c-24 -84 -70 -237 -83 -272 -18 -48 -18 -91 0 -107 15 -11
57 -5 206 32 25 6 65 14 90 18 53 8 101 26 99 37 -1 5 -71 75 -155 157 -97 95
-155 144 -157 135z" style="fill: rgb(255, 255, 255);"></path>
</g>
<g transform="translate(0.000000,300.000000) scale(0.100000,-0.100000)" fill="#A0AEB6" stroke="none">

<path class="node" id="node6" d="M2466 1440 c-31 -29 -56 -58 -56 -65 0 -15 159 -179 182 -187 11 -5
33 11 73 53 53 56 57 63 52 96 -7 41 -50 108 -84 130 -13 9 -43 18 -67 20 -43
5 -47 3 -100 -47z" style="fill: rgb(255, 255, 255);"></path>
</g>
</svg>	