<?xml version="1.0" encoding="utf-8"?>
<!-- Generator: Adobe Illustrator 15.0.0, SVG Export Plug-In . SVG Version: 6.00 Build 0)  -->
<!DOCTYPE svg PUBLIC "-//W3C//DTD SVG 1.1//EN" "http://www.w3.org/Graphics/SVG/1.1/DTD/svg11.dtd">
<svg version="1.1" id="Layer_1" xmlns="http://www.w3.org/2000/svg" xmlns:xlink="http://www.w3.org/1999/xlink" x="0px" y="0px"
	 width="68px" height="68px" viewBox="0 0 68 68" enable-background="new 0 0 68 68" xml:space="preserve">
<g>
	<g>
		<defs>
			<path id="SVGID_1_" d="M60.723,27.695c-0.56,0-1.098,0.081-1.611,0.219V9.932c0-0.499-0.404-0.903-0.901-0.903H40.2
				c0.218-0.632,0.341-1.307,0.341-2.012c0-3.422-2.771-6.195-6.195-6.195c-3.424,0-6.198,2.771-6.198,6.195
				c0,0.706,0.124,1.38,0.341,2.012H10.347c-0.499,0-0.903,0.404-0.903,0.903v18.004c0.54-0.153,1.107-0.241,1.696-0.241
				c3.422,0,6.195,2.774,6.195,6.195c0,3.422-2.773,6.195-6.195,6.195c-0.589,0-1.156-0.088-1.696-0.241v17.948
				c0,0.499,0.404,0.903,0.903,0.903h18.17c-0.235-0.655-0.371-1.357-0.371-2.094c0-3.422,2.774-6.195,6.198-6.195
				c3.421,0,6.195,2.773,6.195,6.195c0,0.734-0.135,1.438-0.37,2.094h18.039c0.497,0,0.901-0.404,0.901-0.903V39.867
				c0.516,0.138,1.054,0.219,1.611,0.219c3.422,0,6.194-2.773,6.194-6.195C66.917,30.469,64.145,27.695,60.723,27.695z"/>
		</defs>
		<linearGradient id="SVGID_2_" gradientUnits="userSpaceOnUse" x1="38.1797" y1="57.2588" x2="38.1797" y2="-0.2124">
			<stop  offset="0" style="stop-color:#DEDEDE"/>
			<stop  offset="0.3172" style="stop-color:#DADADA"/>
			<stop  offset="0.6247" style="stop-color:#CECECE"/>
			<stop  offset="0.9273" style="stop-color:#BBBBBB"/>
			<stop  offset="1" style="stop-color:#B5B5B5"/>
		</linearGradient>
		<use xlink:href="#SVGID_1_"  overflow="visible" fill="url(#SVGID_2_)"/>
		<clipPath id="SVGID_3_">
			<use xlink:href="#SVGID_1_"  overflow="visible"/>
		</clipPath>
		<linearGradient id="SVGID_4_" gradientUnits="userSpaceOnUse" x1="34.3755" y1="67.4902" x2="34.3755" y2="-1.3164">
			<stop  offset="0" style="stop-color:#A3A3A3"/>
			<stop  offset="0.3704" style="stop-color:#A1A1A1"/>
			<stop  offset="0.5493" style="stop-color:#999999"/>
			<stop  offset="0.6872" style="stop-color:#8C8C8C"/>
			<stop  offset="0.804" style="stop-color:#7A7A7A"/>
			<stop  offset="0.9065" style="stop-color:#626262"/>
			<stop  offset="0.9993" style="stop-color:#454545"/>
			<stop  offset="1" style="stop-color:#454545"/>
		</linearGradient>
		<path clip-path="url(#SVGID_3_)" fill="url(#SVGID_4_)" d="M59.998,28.487c-0.544,0-1.067,0.079-1.566,0.213V11.213
			c0-0.485-0.394-0.878-0.877-0.878H40.04c0.212-0.614,0.331-1.271,0.331-1.957c0-3.328-2.695-6.024-6.024-6.024
			c-3.331,0-6.028,2.695-6.028,6.024c0,0.687,0.121,1.342,0.331,1.957H11.008c-0.485,0-0.878,0.393-0.878,0.878v17.509
			c0.525-0.149,1.076-0.235,1.649-0.235c3.328,0,6.024,2.698,6.024,6.024c0,3.328-2.697,6.024-6.024,6.024
			c-0.573,0-1.125-0.085-1.649-0.234v17.455c0,0.485,0.393,0.878,0.878,0.878h17.67c-0.229-0.637-0.361-1.319-0.361-2.036
			c0-3.327,2.697-6.024,6.028-6.024c3.328,0,6.024,2.697,6.024,6.024c0,0.715-0.131,1.398-0.359,2.036h17.543
			c0.483,0,0.877-0.393,0.877-0.878V40.325c0.501,0.134,1.024,0.212,1.566,0.212c3.328,0,6.024-2.697,6.024-6.023
			C66.022,31.185,63.326,28.487,59.998,28.487z M69.75,67.49H-1V-1.317h70.75V67.49z"/>
	</g>
	<g>
		<defs>
			<path id="SVGID_5_" d="M35.714,28.086l4.792-4.792l-1.59-1.59l-4.792,4.792l-4.792-4.792l-1.591,1.59l4.792,4.792l-4.791,4.791
				l4.791,4.79l-4.79,4.789l1.59,1.591l4.791-4.79l4.791,4.79l1.59-1.591l-4.79-4.789l4.791-4.79L35.714,28.086z M34.124,36.078
				l-3.201-3.2l3.201-3.201l3.201,3.201L34.124,36.078z"/>
		</defs>
		<use xlink:href="#SVGID_5_"  overflow="visible" fill="#EE5A1A"/>
		<clipPath id="SVGID_6_">
			<use xlink:href="#SVGID_5_"  overflow="visible"/>
		</clipPath>
		<g clip-path="url(#SVGID_6_)">
			<path fill="#9C4A00" d="M23.466,18.601V47.35h21.25V18.601H23.466z M40.223,33.728l-4.791,4.789l4.79,4.789l-1.59,1.591
				l-4.792-4.79l-4.791,4.79l-1.59-1.591l4.79-4.789l-4.791-4.789l4.791-4.791l-4.792-4.792l1.591-1.59l4.792,4.792l4.792-4.792
				l1.59,1.59l-4.792,4.792L40.223,33.728z"/>
			
				<rect x="31.578" y="31.466" transform="matrix(-0.7074 -0.7068 0.7068 -0.7074 33.9377 81.5079)" fill="#9C4A00" width="4.525" height="4.526"/>
		</g>
	</g>
</g>
</svg>
