<?xml version="1.0" encoding="utf-8"?>
<!-- Generator: Adobe Illustrator 15.0.0, SVG Export Plug-In . SVG Version: 6.00 Build 0)  -->
<!DOCTYPE svg PUBLIC "-//W3C//DTD SVG 1.1//EN" "http://www.w3.org/Graphics/SVG/1.1/DTD/svg11.dtd">
<svg version="1.1" id="Layer_1" xmlns="http://www.w3.org/2000/svg" xmlns:xlink="http://www.w3.org/1999/xlink" x="0px" y="0px"
	 width="35px" height="35px" viewBox="0 0 35 35" enable-background="new 0 0 35 35" xml:space="preserve">
<rect x="-0.141" y="-0.445" fill="#FFFFFF" width="36" height="36"/>
<path fill="#474747" d="M28.021,4.555H7.698c-1.568,0-2.839,1.271-2.839,2.838v20.324c0,1.567,1.271,2.838,2.839,2.838h10.161v-10
	h-3v-4h2.635l0.076-3.107c0.112-4.227,4.608-3.893,4.608-3.893h3.681v4H23.79c-1.574,0-1.312,1.313-1.312,1.313l-0.075,1.687h3.783
	l-0.524,4h-2.803v10h5.161c1.567,0,2.839-1.271,2.839-2.838V7.393C30.859,5.825,29.588,4.555,28.021,4.555z"/>
</svg>
