
		<!--?xml version="1.0" standalone="no"?--><svg version="1.0" xmlns="http://www.w3.org/2000/svg" width="300" height="300" viewBox="0 0 300.000000 300.000000" preserveAspectRatio="xMidYMid " class="svg" style="width: 310px; height: 300px;">
<metadata>
  <rdf:rdf xmlns:rdf="http://www.w3.org/1999/02/22-rdf-syntax-ns#" xmlns:rdfs="http://www.w3.org/2000/01/rdf-schema#" xmlns:dc="http://purl.org/dc/elements/1.1/">
    <rdf:description dc:title="grid icon" dc:publisher="Hiox" dc:date="2015-03-14" dc:format="image/svg+xml" dc:language="en">
      <dc:creator>
        <rdf:bag>
          <rdf:li>svgimages.com</rdf:li>
        </rdf:bag>
      </dc:creator>
    </rdf:description>
  </rdf:rdf>
</metadata>
<g transform="translate(0.000000,300.000000) scale(0.100000,-0.100000)" fill="#020202" stroke="none">
<path d="M0 2625 l0 -375 363 0 c269 0 366 3 375 12 9 9 12 106 12 375 l0 363
-375 0 -375 0 0 -375z" id="node1" class="node" style="fill: rgb(192, 192, 192);"></path>
<path d="M1120 2637 c0 -269 3 -366 12 -375 17 -17 719 -17 736 0 9 9 12 106
12 375 l0 363 -380 0 -380 0 0 -363z" id="node2" class="node" style="fill: rgb(192, 192, 192);"></path>
<path d="M2250 2637 c0 -269 3 -366 12 -375 9 -9 106 -12 375 -12 l363 0 0
375 0 375 -375 0 -375 0 0 -363z" id="node3" class="node" style="fill: rgb(192, 192, 192);"></path>
<path d="M0 1500 l0 -380 363 0 c269 0 366 3 375 12 17 17 17 719 0 736 -9 9
-106 12 -375 12 l-363 0 0 -380z" id="node4" class="node" style="fill: rgb(192, 192, 192);"></path>
<path d="M1132 1868 c-17 -17 -17 -719 0 -736 17 -17 719 -17 736 0 17 17 17
719 0 736 -17 17 -719 17 -736 0z" id="node5" class="node" style="fill: rgb(192, 192, 192);"></path>
<path d="M2262 1868 c-17 -17 -17 -719 0 -736 9 -9 106 -12 375 -12 l363 0 0
380 0 380 -363 0 c-269 0 -366 -3 -375 -12z" id="node6" class="node" style="fill: rgb(192, 192, 192);"></path>
<path d="M0 375 l0 -375 375 0 375 0 0 363 c0 269 -3 366 -12 375 -9 9 -106
12 -375 12 l-363 0 0 -375z" id="node7" class="node" style="fill: rgb(192, 192, 192);"></path>
<path d="M1132 738 c-9 -9 -12 -106 -12 -375 l0 -363 380 0 380 0 0 363 c0
269 -3 366 -12 375 -17 17 -719 17 -736 0z" id="node8" class="node" style="fill: rgb(192, 192, 192);"></path>
<path d="M2262 738 c-9 -9 -12 -106 -12 -375 l0 -363 375 0 375 0 0 375 0 375
-363 0 c-269 0 -366 -3 -375 -12z" id="node9" class="node" style="fill: rgb(192, 192, 192);"></path>
</g>
<g transform="translate(0.000000,300.000000) scale(0.100000,-0.100000)" fill="#3A6F6B" stroke="none">

</g>
</svg>	