<?xml version="1.0" encoding="utf-8"?>
<!-- Generator: Adobe Illustrator 15.0.0, SVG Export Plug-In . SVG Version: 6.00 Build 0)  -->
<!DOCTYPE svg PUBLIC "-//W3C//DTD SVG 1.1//EN" "http://www.w3.org/Graphics/SVG/1.1/DTD/svg11.dtd">
<svg version="1.1" id="Layer_1" xmlns="http://www.w3.org/2000/svg" xmlns:xlink="http://www.w3.org/1999/xlink" x="0px" y="0px"
	 width="20px" height="20px" viewBox="0 0 20 20" enable-background="new 0 0 20 20" xml:space="preserve">
<g>
	<g>
		<path fill-rule="evenodd" clip-rule="evenodd" fill="#F05A1A" d="M10,0.055c-5.523,0-10,4.477-10,10c0,5.522,4.477,10,10,10
			c5.522,0,10-4.478,10-10C20,4.532,15.522,0.055,10,0.055z M10,19.055c-4.971,0-9-4.029-9-9s4.029-9,9-9c4.971,0,9,4.029,9,9
			S14.971,19.055,10,19.055z M11.543,4.073c-0.932,0-1.737,0.712-1.737,1.583c0,0.812,0.572,1.347,1.441,1.347
			c0.952,0,1.756-0.673,1.756-1.584C13.004,4.607,12.391,4.073,11.543,4.073z M11.967,13.712c-0.297,0-1.461,1.683-2.097,1.683
			c-0.169,0-0.254-0.139-0.254-0.277c0-0.316,0.233-0.812,0.36-1.108l1.524-3.86c0.764-1.92-0.21-2.435-1.122-2.435
			c-1.229,0-2.33,0.574-3.177,1.326c-0.276,0.257-1.208,1.088-1.208,1.445c0,0.118,0.127,0.258,0.276,0.258
			c0.38,0,1.397-1.722,2.181-1.722c0.17,0,0.361,0.178,0.212,0.534L7.181,13.04C7.033,13.375,6.313,15,6.313,15.949
			c0,0.753,0.529,1.089,1.292,1.089c2.139,0,4.617-2.455,4.617-3.028C12.221,13.831,12.073,13.712,11.967,13.712z"/>
	</g>
</g>
</svg>
