<?xml version="1.0" encoding="utf-8"?>
<!-- Generator: Adobe Illustrator 15.0.0, SVG Export Plug-In . SVG Version: 6.00 Build 0)  -->
<!DOCTYPE svg PUBLIC "-//W3C//DTD SVG 1.1//EN" "http://www.w3.org/Graphics/SVG/1.1/DTD/svg11.dtd">
<svg version="1.1" id="Layer_1" xmlns="http://www.w3.org/2000/svg" xmlns:xlink="http://www.w3.org/1999/xlink" x="0px" y="0px"
	 width="300px" height="300px" viewBox="0 0 300 300" enable-background="new 0 0 300 300" xml:space="preserve">
<g>
	<path fill="#F15918" d="M120.992,183.68c0,0,1.216-4.662-8.513-11.755c-9.729-7.094-18.647-9.933-27.16-12.364
		c-8.513-2.433-20.269-6.486-18.85-12.161c1.418-5.675,13.782-14.594,31.011-19.053s38.713-5.27,46.416,1.824
		c7.703,7.094,4.864,23.918,4.054,28.782c-0.811,4.864-6.081,31.416,3.042,42.564c9.119,11.148,18.646,21.688,48.238,20.674
		c29.594-1.013,64.658-21.079,80.468-42.362c15.81-21.281,22.296-39.726,18.038-61.21c-4.256-21.485-37.902-58.78-80.061-70.536
		c-48.237-13.451-86.346-13.377-129.315,1.216c-42.969,14.593-70.94,41.754-80.264,70.94c-9.324,29.187-6.081,49.659-3.041,62.428
		c3.041,12.769,10.134,38.511,48.645,57.766c38.511,19.256,74.589,20.27,103.372,20.066c28.781-0.203,65.873-8.918,67.697-9.324
		c1.824-0.404,11.756-2.026,16.012-2.026c4.257,0,17.026-5.675,4.257-6.892c-12.77-1.216-15.201,4.865-45.199,8.31
		c-29.998,3.447-50.672,5.068-78.846,0.608c-28.174-4.459-81.075-16.62-99.114-53.915c-18.04-37.294,3.04-80.264,5.27-85.128
		c2.229-4.864,20.877-34.254,53.915-48.24c33.039-13.985,63.442-18.242,99.115-14.391c35.673,3.851,66.278,20.471,83.304,34.457
		c17.026,13.985,31.822,42.767,24.931,66.887c-6.892,24.12-23.917,39.93-32.632,45.604c-8.716,5.676-24.729,19.661-60.198,18.648
		c-35.472-1.015-38.916-17.838-40.74-28.377c-1.825-10.539,6.892-38.511,6.892-45.2c0-6.688-5.271-26.552-38.309-27.16
		c-33.038-0.608-49.456,13.782-54.929,15.809c-5.473,2.027-20.066,9.526-16.417,18.445c3.648,8.918,7.905,12.161,30.201,17.431
		C104.574,171.316,112.682,187.126,120.992,183.68z"/>
</g>
</svg>
