<?xml version="1.0" encoding="utf-8"?>
<!-- Generator: Adobe Illustrator 15.0.0, SVG Export Plug-In . SVG Version: 6.00 Build 0)  -->
<!DOCTYPE svg PUBLIC "-//W3C//DTD SVG 1.1//EN" "http://www.w3.org/Graphics/SVG/1.1/DTD/svg11.dtd">
<svg version="1.1" id="Layer_1" xmlns="http://www.w3.org/2000/svg" xmlns:xlink="http://www.w3.org/1999/xlink" x="0px" y="0px"
	 width="39px" height="39px" viewBox="0 0 39 39" enable-background="new 0 0 39 39" xml:space="preserve">
<path fill="#F05A1A" d="M2.148,19.713c0-9.65,7.852-17.502,17.501-17.501c9.651,0,17.501,7.853,17.501,17.502
	c0.002,9.653-7.852,17.506-17.501,17.505C10,37.221,2.148,29.367,2.148,19.713z M34.58,19.716c0-8.232-6.697-14.929-14.929-14.929
	S4.723,11.482,4.723,19.714c0.001,8.231,6.698,14.932,14.929,14.931C27.883,34.646,34.58,27.947,34.58,19.716z M10.052,21.137
	l0.001-2.844h8.174v-8.174h2.843v8.174l8.176,0.001l0.001,2.843h-8.176v8.174h-2.844l-0.001-8.174H10.052z"/>
</svg>
