<?xml version="1.0" encoding="utf-8"?>
<!-- Generator: Adobe Illustrator 18.0.0, SVG Export Plug-In . SVG Version: 6.00 Build 0)  -->
<!DOCTYPE svg PUBLIC "-//W3C//DTD SVG 1.1//EN" "http://www.w3.org/Graphics/SVG/1.1/DTD/svg11.dtd">
<svg version="1.1" id="Layer_1" xmlns="http://www.w3.org/2000/svg" xmlns:xlink="http://www.w3.org/1999/xlink" x="0px" y="0px"
	 viewBox="0 0 39 39" enable-background="new 0 0 39 39" xml:space="preserve">
<path fill="#FCFCFC" d="M2.1,19.7c0-9.6,7.9-17.5,17.5-17.5c9.7,0,17.5,7.9,17.5,17.5c0,9.7-7.9,17.5-17.5,17.5
	C10,37.2,2.1,29.4,2.1,19.7z M34.6,19.7c0-8.2-6.7-14.9-14.9-14.9S4.7,11.5,4.7,19.7c0,8.2,6.7,14.9,14.9,14.9
	C27.9,34.6,34.6,27.9,34.6,19.7z M10.1,21.1l0-2.8h8.2v-8.2h2.8v8.2l8.2,0l0,2.8h-8.2v8.2h-2.8l0-8.2H10.1z"/>
</svg>
