<?xml version="1.0" encoding="utf-8"?>
<!-- Generator: Adobe Illustrator 15.0.0, SVG Export Plug-In . SVG Version: 6.00 Build 0)  -->
<!DOCTYPE svg PUBLIC "-//W3C//DTD SVG 1.1//EN" "http://www.w3.org/Graphics/SVG/1.1/DTD/svg11.dtd">
<svg version="1.1" id="Layer_1" xmlns="http://www.w3.org/2000/svg" xmlns:xlink="http://www.w3.org/1999/xlink" x="0px" y="0px"
	 width="900px" height="900px" viewBox="0 0 900 900" enable-background="new 0 0 900 900" xml:space="preserve">
<rect x="0.36" y="0.055" fill="#F8F8F8" width="900" height="900"/>
<path fill="#F15918" d="M415.11,491.805c0,0,1.5-5.75-10.5-14.5s-23-12.25-33.5-15.25s-25-8-23.25-15s17-18,38.25-23.5
	s47.75-6.5,57.25,2.25s6,29.5,5,35.5s-7.5,38.75,3.75,52.5s23,26.75,59.5,25.5s79.75-26,99.25-52.25s27.5-49,22.25-75.5
	c-5.25-26.5-46.75-72.5-98.75-87c-59.497-16.59-106.5-16.5-159.5,1.5s-87.5,51.5-99,87.5c-11.5,36-7.5,61.25-3.75,77
	s12.5,47.5,60,71.25s92,25,127.5,24.75s81.25-11,83.5-11.5s14.5-2.5,19.75-2.5s21-7,5.25-8.5s-18.75,6-55.75,10.25
	s-62.5,6.25-97.25,0.75s-100-20.5-122.25-66.5s3.75-99,6.5-105s25.75-42.25,66.5-59.5s78.25-22.5,122.25-17.75
	s81.75,25.25,102.75,42.5s39.25,52.75,30.75,82.5s-29.5,49.25-40.25,56.25s-30.5,24.25-74.25,23s-48-22-50.25-35s8.5-47.5,8.5-55.75
	s-6.5-32.75-47.25-33.5s-61,17-67.75,19.5s-24.75,11.75-20.25,22.75s9.75,15,37.25,21.5S404.86,496.055,415.11,491.805z"/>
</svg>
