<?xml version="1.0" encoding="utf-8"?>
<!-- Generator: Adobe Illustrator 15.0.0, SVG Export Plug-In . SVG Version: 6.00 Build 0)  -->
<!DOCTYPE svg PUBLIC "-//W3C//DTD SVG 1.1//EN" "http://www.w3.org/Graphics/SVG/1.1/DTD/svg11.dtd">
<svg version="1.1" id="Layer_1" xmlns="http://www.w3.org/2000/svg" xmlns:xlink="http://www.w3.org/1999/xlink" x="0px" y="0px"
	 width="479px" height="479px" viewBox="0 0 479 479" enable-background="new 0 0 479 479" xml:space="preserve">
<g>
	<path fill="#F15918" d="M192.986,295.566c0,0,1.939-7.43-13.567-18.734c-15.505-11.305-29.718-15.83-43.286-19.705
		c-13.568-3.877-32.304-10.338-30.042-19.382c2.261-9.045,21.965-23.259,49.423-30.365c27.458-7.106,61.7-8.399,73.975,2.906
		c12.276,11.307,7.753,38.12,6.461,45.871c-1.292,7.752-9.691,50.068,4.848,67.837c14.533,17.768,29.718,34.564,76.88,32.948
		c47.164-1.613,103.049-33.595,128.245-67.514c25.196-33.918,35.534-63.313,28.748-97.554
		c-6.783-34.242-60.407-93.68-127.596-112.416c-76.879-21.437-137.614-21.319-206.097,1.938
		c-68.482,23.258-113.061,66.545-127.92,113.061c-14.86,46.517-9.691,79.144-4.846,99.495c4.846,20.349,16.151,61.376,77.527,92.063
		c61.377,30.688,118.876,32.305,164.749,31.98c45.87-0.324,104.984-14.213,107.892-14.86c2.907-0.645,18.736-3.229,25.519-3.229
		c6.784,0,27.136-9.044,6.784-10.983c-20.351-1.938-24.227,7.754-72.035,13.244c-47.81,5.493-80.759,8.077-125.661,0.969
		c-44.902-7.106-129.213-26.488-157.962-85.927c-28.751-59.438,4.845-127.92,8.398-135.673c3.553-7.752,33.272-54.592,85.926-76.882
		c52.655-22.289,101.11-29.074,157.965-22.935c56.854,6.138,105.631,32.626,132.765,54.916
		c27.137,22.289,50.717,68.16,39.733,106.601c-10.983,38.441-38.117,63.638-52.006,72.682
		c-13.892,9.046-39.412,31.335-95.941,29.721c-56.533-1.617-62.022-28.429-64.931-45.226c-2.908-16.796,10.984-61.376,10.984-72.037
		c0-10.66-8.399-42.318-61.054-43.286c-52.654-0.97-78.821,21.965-87.542,25.195c-8.722,3.231-31.98,15.183-26.166,29.396
		c5.815,14.213,12.598,19.382,48.132,27.78C166.821,275.862,179.742,301.059,192.986,295.566z"/>
</g>
</svg>
