<?xml version="1.0" encoding="utf-8"?>
<!-- Generator: Adobe Illustrator 15.0.0, SVG Export Plug-In . SVG Version: 6.00 Build 0)  -->
<!DOCTYPE svg PUBLIC "-//W3C//DTD SVG 1.1//EN" "http://www.w3.org/Graphics/SVG/1.1/DTD/svg11.dtd">
<svg version="1.1" id="Layer_1" xmlns="http://www.w3.org/2000/svg" xmlns:xlink="http://www.w3.org/1999/xlink" x="0px" y="0px"
	 width="39px" height="39px" viewBox="0 0 39 39" enable-background="new 0 0 39 39" xml:space="preserve">
<path fill="#FFFFFF" d="M6.303,6.365c7.36-7.36,19.337-7.36,26.695,0c7.36,7.361,7.36,19.339,0,26.697
	C25.639,40.426,13.66,40.425,6.3,33.064C-1.061,25.708-1.06,13.729,6.303,6.365z M31.037,31.104
	c6.277-6.279,6.277-16.495-0.001-22.773c-6.277-6.279-16.492-6.279-22.77,0c-6.277,6.278-6.28,16.496-0.001,22.775
	C14.542,37.382,24.759,37.381,31.037,31.104z"/>
<polygon fill="#FFFFFF" points="13.921,33.541 11.977,31.597 23.693,19.88 11.974,8.161 13.919,6.215 27.585,19.88 "/>
<polygon fill="#FFFFFF" points="25.639,33.541 27.583,31.597 15.865,19.88 27.585,8.161 25.64,6.215 11.975,19.88 "/>
</svg>
