<?xml version="1.0" encoding="utf-8"?>
<!-- Generator: Adobe Illustrator 15.0.0, SVG Export Plug-In . SVG Version: 6.00 Build 0)  -->
<!DOCTYPE svg PUBLIC "-//W3C//DTD SVG 1.1//EN" "http://www.w3.org/Graphics/SVG/1.1/DTD/svg11.dtd">
<svg version="1.1" id="Layer_1" xmlns="http://www.w3.org/2000/svg" xmlns:xlink="http://www.w3.org/1999/xlink" x="0px" y="0px"
	 width="34px" height="34px" viewBox="0 0 34 34" enable-background="new 0 0 34 34" xml:space="preserve">
<g>
	
		<linearGradient id="SVGID_1_" gradientUnits="userSpaceOnUse" x1="29.0347" y1="28.4248" x2="5.87" y2="5.2602" gradientTransform="matrix(-0.4565 -0.8897 0.8897 -0.4565 10.4333 40.0579)">
		<stop  offset="0" style="stop-color:#F2F3F3"/>
		<stop  offset="0.5699" style="stop-color:#F2F3F3"/>
		<stop  offset="0.6613" style="stop-color:#EEEFEF"/>
		<stop  offset="1" style="stop-color:#D4D6D7"/>
	</linearGradient>
	<circle fill="url(#SVGID_1_)" cx="17.452" cy="16.842" r="16.38"/>
	<path fill="#FFFFFF" d="M25.008,31.17c-8.049,4.129-17.92,0.952-22.051-7.098c-2.042-3.981-2.295-8.409-1.057-12.37
		c-1.328,4.022-1.107,8.552,0.978,12.617c4.13,8.049,14.002,11.226,22.05,7.097c4.067-2.087,6.887-5.638,8.154-9.68
		C31.779,25.677,28.991,29.126,25.008,31.17z"/>
</g>
<g>
	
		<linearGradient id="SVGID_2_" gradientUnits="userSpaceOnUse" x1="27.9321" y1="27.3232" x2="6.9703" y2="6.3614" gradientTransform="matrix(0.8043 0.5942 -0.5942 0.8043 13.4232 -7.0737)">
		<stop  offset="0" style="stop-color:#F2F3F3"/>
		<stop  offset="0.5699" style="stop-color:#F2F3F3"/>
		<stop  offset="0.6613" style="stop-color:#EEEFEF"/>
		<stop  offset="1" style="stop-color:#D4D6D7"/>
	</linearGradient>
	<circle fill="url(#SVGID_2_)" cx="17.452" cy="16.842" r="14.822"/>
	<path fill="#BDBDBD" d="M5.565,8.266c4.864-6.584,14.144-7.979,20.729-3.113c3.257,2.406,5.243,5.893,5.831,9.603
		c-0.541-3.794-2.541-7.378-5.865-9.835C19.674,0.056,10.394,1.451,5.53,8.034c-2.458,3.327-3.316,7.339-2.718,11.125
		C2.285,15.441,3.158,11.523,5.565,8.266z"/>
</g>
<polygon fill="#EE5A1A" points="13.343,27.094 11.99,25.74 20.146,17.585 11.988,9.429 13.342,8.075 22.854,17.585 "/>
<polygon fill="#EE5A1A" points="21.5,27.094 22.853,25.74 14.696,17.585 22.854,9.429 21.5,8.075 11.989,17.585 "/>
</svg>
