<?xml version="1.0" encoding="utf-8"?>
<!-- Generator: Adobe Illustrator 15.0.0, SVG Export Plug-In . SVG Version: 6.00 Build 0)  -->
<!DOCTYPE svg PUBLIC "-//W3C//DTD SVG 1.1//EN" "http://www.w3.org/Graphics/SVG/1.1/DTD/svg11.dtd">
<svg version="1.1" id="Layer_1" xmlns="http://www.w3.org/2000/svg" xmlns:xlink="http://www.w3.org/1999/xlink" x="0px" y="0px"
	 width="49px" height="49px" viewBox="0 0 49 49" enable-background="new 0 0 49 49" xml:space="preserve">
<rect x="-0.14" y="-0.445" fill="#B3E7F8" width="50" height="50"/>
<path fill="#FFFFFF" d="M20.225,25.535L20.225,25.535L20.225,25.535 M20.225,25.535L20.225,25.535L20.225,25.535 M31.557,13.268
	c-0.705,0-2.034,0.627-2.034,0.627v-0.25c-2.999,1.75-4.758,7.172-4.758,7.172c-2.699-2.671-10.495-5.339-10.495-5.339
	c0.171,2.792,2.613,3.877,2.613,3.877l0,0l0,0l-1.842,0.167c0,2.38,3.685,3.298,3.685,3.298l0,0l0,0
	c-0.201-0.045-0.389-0.065-0.563-0.065c-1.091,0-1.665,0.776-1.665,0.776c1.298,1.83,2.895,2.015,3.489,2.015
	c0.064,0,0.118-0.002,0.157-0.004l0,0l0,0c-0.536,0.094-1.119,1.077-1.119,1.077C19.008,26.692,19,26.762,19,26.827
	c0,0.713,0.974,0.969,1.639,0.969c0.177,0,0.333-0.019,0.442-0.051c0.07-0.021,0.122-0.03,0.16-0.03
	c0.064,0,0.088,0.025,0.088,0.064c0,0.123-0.248,0.383-0.248,0.383c-2.189,1.687-4.208,2.24-5.914,2.24
	c-3.269,0-5.395-2.032-5.395-2.032c3.041,5.043,10.709,5.918,10.709,5.918c0.092,0,0.182,0.001,0.273,0.001
	c14.741,0,16.432-10.048,16.432-10.048c0.28,0.058,0.546,0.081,0.797,0.081c1.779,0,2.805-1.25,2.805-1.25
	c-0.284,0.031-0.545,0.045-0.784,0.045c-1.677,0-2.3-0.671-2.3-0.671l0,0l0,0c2.613-0.041,3.084-1.669,3.084-1.669
	c-0.507,0.334-1.228,0.43-1.892,0.43c-0.908,0-1.71-0.18-1.71-0.18c-1.777-5.8-6.335-5.84-6.462-5.84c-0.002,0-0.003,0-0.003,0l0,0
	l0,0c1.542-0.125,2.441-1.25,2.441-1.25c-0.012-0.109-0.19-0.147-0.438-0.147c-0.604,0-1.618,0.231-1.618,0.231l0,0l0,0
	c0.3-0.167,0.514-0.75,0.514-0.75C31.601,13.269,31.579,13.268,31.557,13.268"/>
</svg>
