<?xml version="1.0" encoding="utf-8"?>
<!-- Generator: Adobe Illustrator 15.0.0, SVG Export Plug-In . SVG Version: 6.00 Build 0)  -->
<!DOCTYPE svg PUBLIC "-//W3C//DTD SVG 1.1//EN" "http://www.w3.org/Graphics/SVG/1.1/DTD/svg11.dtd">
<svg version="1.1" id="Layer_1" xmlns="http://www.w3.org/2000/svg" xmlns:xlink="http://www.w3.org/1999/xlink" x="0px" y="0px"
	 width="39px" height="39px" viewBox="0 0 39 39" enable-background="new 0 0 39 39" xml:space="preserve">
<path fill="#FFFFFF" d="M7.276,7.338c6.823-6.824,17.928-6.824,24.75,0c6.824,6.825,6.823,17.929,0,24.752
	c-6.824,6.827-17.93,6.826-24.753,0.002C0.448,25.271,0.449,14.165,7.276,7.338z M30.207,30.273
	c5.82-5.821,5.82-15.292-0.001-21.113c-5.82-5.821-15.29-5.821-21.11,0c-5.82,5.821-5.822,15.294-0.001,21.115
	C14.914,36.095,24.386,36.094,30.207,30.273z M11.858,13.934l2.012-2.01l5.78,5.78l5.78-5.78l2.011,2.01l-5.78,5.78l5.78,5.782
	l-2.01,2.011l-5.781-5.781l-5.78,5.78l-2.011-2.011l5.779-5.781L11.858,13.934z"/>
</svg>
