<?xml version="1.0" encoding="utf-8"?>
<!-- Generator: Adobe Illustrator 15.0.0, SVG Export Plug-In . SVG Version: 6.00 Build 0)  -->
<!DOCTYPE svg PUBLIC "-//W3C//DTD SVG 1.1//EN" "http://www.w3.org/Graphics/SVG/1.1/DTD/svg11.dtd">
<svg version="1.1" id="Layer_1" xmlns="http://www.w3.org/2000/svg" xmlns:xlink="http://www.w3.org/1999/xlink" x="0px" y="0px"
	 width="100px" height="100px" viewBox="0 0 100 100" enable-background="new 0 0 100 100" xml:space="preserve">
<g>
	<path fill="#F15918" d="M40.475,61.915c0,0,0.405-1.553-2.836-3.915c-3.241-2.362-6.211-3.31-9.047-4.118
		c-2.836-0.811-6.751-2.162-6.279-4.051c0.473-1.891,4.591-4.862,10.33-6.347c5.739-1.485,12.895-1.755,15.461,0.608
		c2.567,2.362,1.62,7.968,1.35,9.587c-0.27,1.62-2.026,10.465,1.013,14.178c3.038,3.714,6.211,7.225,16.069,6.887
		c9.857-0.336,21.537-7.021,26.804-14.11c5.266-7.089,7.426-13.233,6.01-20.39c-1.419-7.157-12.626-19.58-26.67-23.496
		c-16.067-4.48-28.762-4.456-43.075,0.405C15.291,22.013,5.974,31.061,2.868,40.783c-3.106,9.721-2.026,16.541-1.013,20.794
		c1.013,4.254,3.375,12.83,16.204,19.243c12.828,6.414,24.846,6.752,34.434,6.684c9.586-0.067,21.941-2.971,22.55-3.104
		c0.607-0.136,3.915-0.677,5.334-0.677c1.417,0,5.67-1.89,1.417-2.295c-4.253-0.404-5.063,1.621-15.055,2.768
		c-9.993,1.148-16.88,1.688-26.264,0.204c-9.385-1.486-27.007-5.538-33.015-17.961C1.45,54.017,8.472,39.703,9.215,38.083
		c0.743-1.62,6.954-11.411,17.959-16.069c11.005-4.658,21.132-6.076,33.015-4.793c11.883,1.283,22.077,6.819,27.749,11.478
		c5.672,4.659,10.601,14.246,8.304,22.281c-2.295,8.034-7.966,13.3-10.869,15.189c-2.903,1.892-8.237,6.55-20.053,6.213
		c-11.815-0.338-12.963-5.942-13.57-9.452c-0.607-3.512,2.296-12.829,2.296-15.056c0-2.229-1.755-8.845-12.761-9.047
		c-11.005-0.203-16.474,4.591-18.297,5.267c-1.823,0.675-6.684,3.173-5.469,6.144c1.215,2.97,2.633,4.051,10.06,5.806
		S37.706,63.063,40.475,61.915z"/>
</g>
</svg>
