<?xml version="1.0" encoding="utf-8"?>
<!-- Generator: Adobe Illustrator 15.0.0, SVG Export Plug-In . SVG Version: 6.00 Build 0)  -->
<!DOCTYPE svg PUBLIC "-//W3C//DTD SVG 1.1//EN" "http://www.w3.org/Graphics/SVG/1.1/DTD/svg11.dtd">
<svg version="1.1" id="Layer_1" xmlns="http://www.w3.org/2000/svg" xmlns:xlink="http://www.w3.org/1999/xlink" x="0px" y="0px"
	 width="479px" height="479px" viewBox="0 0 479 479" enable-background="new 0 0 479 479" xml:space="preserve">
<g>
	<path fill="#F15918" d="M192.495,295.141c0,0,1.958-7.508-13.709-18.932c-15.668-11.425-30.03-15.995-43.74-19.912
		s-32.642-10.445-30.356-19.584c2.285-9.14,22.196-23.502,49.941-30.683c27.745-7.181,62.345-8.487,74.749,2.938
		c12.404,11.425,7.834,38.518,6.528,46.352s-9.792,50.594,4.896,68.547c14.688,17.953,30.03,34.927,77.687,33.294
		c47.657-1.632,104.127-33.946,129.587-68.221c25.461-34.273,35.906-63.977,29.051-98.577
		c-6.854-34.6-61.039-94.661-128.934-113.593c-77.684-21.661-139.053-21.543-208.253,1.958
		c-69.2,23.502-114.245,67.242-129.26,114.246s-9.792,79.972-4.896,100.536c4.896,20.563,16.321,62.019,78.34,93.028
		s120.121,32.642,166.472,32.315c46.352-0.327,106.085-14.362,109.023-15.016c2.938-0.652,18.932-3.264,25.786-3.264
		s27.419-9.14,6.854-11.099c-20.563-1.958-24.48,7.834-72.79,13.383c-48.31,5.55-81.604,8.161-126.976,0.979
		c-45.372-7.181-130.566-26.766-159.617-86.826C3.826,256.95,37.773,187.75,41.364,179.916c3.59-7.834,33.621-55.164,86.826-77.687
		c53.206-22.522,102.168-29.377,159.618-23.175c57.449,6.202,106.737,32.968,134.156,55.491
		c27.419,22.522,51.247,68.874,40.149,107.717c-11.099,38.843-38.518,64.304-52.553,73.443c-14.036,9.14-39.823,31.662-96.945,30.03
		c-57.123-1.633-62.672-28.725-65.609-45.698c-2.938-16.974,11.098-62.019,11.098-72.791c0-10.771-8.486-42.76-61.692-43.739
		c-53.206-0.979-79.646,22.196-88.458,25.46c-8.813,3.264-32.315,15.342-26.44,29.704s12.73,19.585,48.636,28.071
		C166.055,275.229,179.111,300.689,192.495,295.141z"/>
</g>
</svg>
