<?xml version="1.0" encoding="utf-8"?>
<!-- Generator: Adobe Illustrator 15.0.0, SVG Export Plug-In . SVG Version: 6.00 Build 0)  -->
<!DOCTYPE svg PUBLIC "-//W3C//DTD SVG 1.1//EN" "http://www.w3.org/Graphics/SVG/1.1/DTD/svg11.dtd">
<svg version="1.1" id="Layer_1" xmlns="http://www.w3.org/2000/svg" xmlns:xlink="http://www.w3.org/1999/xlink" x="0px" y="0px"
	 width="600px" height="600px" viewBox="0 0 600 600" enable-background="new 0 0 600 600" xml:space="preserve">
<path fill="#F06427" d="M300.599,599.946h298.163c0,0,5-23.335-21.333-48.668c-26.334-25.333-114.334-67.333-137.334-71.333
	s-59.666-19.333-64.666-22s-3.667-9.333-3-19.666c0.666-10.333,8.333-27,8.333-27c12-12,21.333-25.667,25-31.334s9-21,9-21
	c16.667-22,26.667-41,27.667-58.333s-11.334-28.667-11.334-28.667c16.668-60.667-10.666-115.333-43-144.667
	c-32.332-29.333-87.496-33.333-87.496-33.333h-0.072c0,0-55.167,4-87.5,33.333s-59.667,84-43,144.667
	c0,0-12.333,11.334-11.333,28.667s11,36.333,27.667,58.333c0,0,5.333,15.333,9,21s13,19.334,25,31.334c0,0,7.667,16.667,8.333,27
	s2,16.999-3,19.666s-41.667,18-64.667,22s-111,46-137.333,71.333S2.36,599.946,2.36,599.946h298.167H300.599z"/>
</svg>
