<?xml version="1.0" encoding="utf-8"?>
<!-- Generator: Adobe Illustrator 15.0.0, SVG Export Plug-In . SVG Version: 6.00 Build 0)  -->
<!DOCTYPE svg PUBLIC "-//W3C//DTD SVG 1.1//EN" "http://www.w3.org/Graphics/SVG/1.1/DTD/svg11.dtd">
<svg version="1.1" id="Layer_1" xmlns="http://www.w3.org/2000/svg" xmlns:xlink="http://www.w3.org/1999/xlink" x="0px" y="0px"
	 width="35px" height="35px" viewBox="0 0 35 35" enable-background="new 0 0 35 35" xml:space="preserve">
<rect x="-0.141" y="-0.445" fill="#FFFFFF" width="36" height="36"/>
<path display="none" fill="#474747" d="M28.021,4.555H7.698c-1.568,0-2.839,1.271-2.839,2.838v20.324
	c0,1.567,1.271,2.838,2.839,2.838h10.161v-10h-3v-4h2.635l0.076-3.107c0.112-4.227,4.608-3.893,4.608-3.893h3.681v4H23.79
	c-1.574,0-1.312,1.313-1.312,1.313l-0.075,1.687h3.783l-0.524,4h-2.803v10h5.161c1.567,0,2.839-1.271,2.839-2.838V7.393
	C30.859,5.825,29.588,4.555,28.021,4.555z"/>
<path fill="#474747" d="M12.459,18.09L12.459,18.09L12.459,18.09 M12.459,18.09L12.459,18.09L12.459,18.09 M23.791,5.823
	c-0.705,0-2.034,0.627-2.034,0.627V6.2c-2.999,1.75-4.758,7.172-4.758,7.172C14.3,10.701,6.504,8.034,6.504,8.034
	c0.171,2.792,2.613,3.877,2.613,3.877l0,0l0,0l-1.842,0.167c0,2.38,3.685,3.298,3.685,3.298l0,0l0,0
	c-0.201-0.045-0.389-0.065-0.563-0.065c-1.091,0-1.665,0.776-1.665,0.776c1.298,1.829,2.895,2.015,3.489,2.015
	c0.064,0,0.118-0.002,0.157-0.004l0,0l0,0c-0.536,0.094-1.119,1.077-1.119,1.077c-0.017,0.072-0.025,0.142-0.025,0.207
	c0,0.713,0.974,0.969,1.639,0.969c0.177,0,0.333-0.019,0.442-0.051c0.07-0.021,0.122-0.03,0.16-0.03
	c0.064,0,0.088,0.025,0.088,0.064c0,0.123-0.248,0.383-0.248,0.383c-2.189,1.687-4.208,2.24-5.914,2.24
	c-3.269,0-5.395-2.032-5.395-2.032c3.041,5.043,10.709,5.918,10.709,5.918c0.092,0,0.182,0.001,0.273,0.001
	c14.741,0,16.432-10.048,16.432-10.048c0.28,0.058,0.546,0.081,0.797,0.081c1.779,0,2.805-1.25,2.805-1.25
	c-0.284,0.031-0.545,0.045-0.784,0.045c-1.677,0-2.3-0.671-2.3-0.671l0,0l0,0c2.613-0.041,3.084-1.669,3.084-1.669
	c-0.507,0.334-1.228,0.43-1.892,0.43c-0.908,0-1.71-0.18-1.71-0.18c-1.777-5.8-6.335-5.84-6.462-5.84c-0.002,0-0.003,0-0.003,0l0,0
	l0,0c1.542-0.125,2.441-1.25,2.441-1.25c-0.012-0.109-0.19-0.147-0.438-0.147c-0.604,0-1.618,0.231-1.618,0.231l0,0l0,0
	c0.3-0.167,0.514-0.75,0.514-0.75C23.835,5.824,23.813,5.823,23.791,5.823"/>
</svg>
